<svg width="265" height="109" viewBox="0 0 304 125" fill="none" xmlns="http://www.w3.org/2000/svg">
<path d="M99.082 47.9192L52.2032 0.917993C50.9792 -0.305998 49.1432 -0.305998 47.9192 0.917993L0.917993 47.9192C-0.305998 49.1432 -0.305998 50.9792 0.917993 52.2032L18.0539 69.339C19.5226 68.3598 21.2362 67.7478 23.0722 67.7478C23.317 67.7478 23.5618 67.7478 23.6842 67.7478C23.5618 65.2999 24.2962 62.8519 26.2546 60.8935C27.8458 59.3023 30.049 58.3231 32.3745 58.3231C32.6193 58.3231 32.8641 58.3231 32.9865 58.3231C32.8641 55.8751 33.5985 53.4272 35.5569 51.4688C37.1481 49.8776 39.3513 48.8984 41.6769 48.8984C44.0024 48.8984 46.2056 49.7552 47.7968 51.4688L50 53.672L52.2032 51.4688C53.7944 49.8776 55.9975 48.8984 58.3231 48.8984C60.6487 48.8984 62.8519 49.7552 64.4431 51.4688C66.0343 53.06 67.0135 55.2632 67.0135 57.5887C67.0135 57.8335 67.0135 57.9559 67.0135 58.2007C67.2583 58.2007 67.3807 58.2007 67.6255 58.2007C69.951 58.2007 72.1542 59.0575 73.7454 60.7711C75.5814 62.6071 76.4382 65.1775 76.3158 67.6255C76.5606 67.6255 76.683 67.6255 76.9278 67.6255C78.7638 67.6255 80.4774 68.115 81.9461 69.2166L99.082 52.0808C100.306 50.9792 100.306 49.1432 99.082 47.9192ZM30.7833 52.2032C28.4578 54.5288 24.6634 54.5288 22.2154 52.2032C19.8898 49.8776 19.8898 46.0832 22.2154 43.6352C24.541 41.3097 28.3354 41.3097 30.7833 43.6352C33.2313 45.9608 33.2313 49.8776 30.7833 52.2032ZM52.2032 30.7833C49.8776 33.1089 46.0832 33.1089 43.6352 30.7833C41.3097 28.4578 41.3097 24.6634 43.6352 22.2154C45.9608 19.8898 49.7552 19.8898 52.2032 22.2154C54.5288 24.6634 54.5288 28.4578 52.2032 30.7833ZM64.9327 43.6352C62.6071 45.9608 58.8127 45.9608 56.3647 43.6352C54.0392 41.3097 54.0392 37.5153 56.3647 35.0673C58.6903 32.7417 62.4847 32.7417 64.9327 35.0673C67.3807 37.5153 67.3807 41.3097 64.9327 43.6352ZM77.7846 56.4871C75.459 58.8127 71.6646 58.8127 69.2166 56.4871C66.8911 54.1616 66.8911 50.3672 69.2166 47.9192C71.5422 45.5936 75.3366 45.5936 77.7846 47.9192C80.1102 50.2448 80.1102 54.0392 77.7846 56.4871Z" fill="white"/>
<path d="M38.4947 60.8938C38.4947 61.0162 38.6171 61.0162 38.4947 60.8938L41.7994 64.1985L46.0834 68.4825L46.2058 68.6049C47.0626 69.3393 48.0418 69.7065 49.1434 69.7065C49.2658 69.7065 49.3882 69.7065 49.5106 69.7065H49.633C50.6122 69.5841 51.5914 69.2169 52.3258 68.3601C54.0393 66.6465 54.0393 63.8313 52.3258 61.9953L50.0002 59.6698L49.8778 59.5474L44.8594 54.529C44.0026 53.6722 42.901 53.1826 41.677 53.1826C40.453 53.1826 39.3515 53.6722 38.4947 54.529C36.7811 56.365 36.7811 59.0578 38.4947 60.8938Z" fill="white"/>
<path d="M29.1924 70.3188L32.0076 73.134L36.7812 77.9075C36.9036 78.0299 36.9036 78.0299 37.026 78.1523L38.6171 79.7435C39.1067 80.2331 39.7187 80.6003 40.3307 80.8451H40.4531C40.8203 80.9675 41.3099 81.0899 41.7995 81.0899C43.0235 81.0899 44.1251 80.6003 44.9819 79.7435C45.8387 78.8867 46.3283 77.7851 46.3283 76.5612C46.3283 76.0716 46.2059 75.7044 46.0835 75.2148V75.0924C45.8387 74.4804 45.4715 73.8684 44.9819 73.3788L43.3907 71.7876L43.1459 71.5428L38.8619 67.2588L35.5572 63.9541L35.4348 63.8317C34.578 63.0973 33.4764 62.6077 32.3748 62.6077C31.1508 62.6077 30.0492 63.0973 29.1924 63.9541C27.4788 65.6676 27.4788 68.4828 29.1924 70.3188C29.1924 70.1964 29.1924 70.3188 29.1924 70.3188Z" fill="white"/>
<path d="M18.5435 76.4388C18.5435 77.6628 19.0331 78.7643 19.8898 79.6211L24.2962 84.0275C24.4186 84.1499 24.4186 84.1499 24.541 84.2723L27.4786 87.2099C28.3354 87.9443 29.3146 88.3115 30.4162 88.3115C30.661 88.3115 30.7834 88.3115 31.0282 88.3115H31.1506C32.1297 88.1891 32.8641 87.6995 33.5985 87.0875C34.5777 86.1083 34.8225 85.1291 34.8225 84.3947C34.8225 84.2723 34.8225 84.2723 34.8225 84.1499C34.9449 83.0483 34.4553 81.8243 33.7209 80.9675C33.7209 80.8451 33.5985 80.8451 33.5985 80.7227L28.825 75.9492L26.0098 73.134L25.8874 73.0116C25.0306 72.2772 23.929 71.7876 22.8274 71.7876C21.6034 71.7876 20.5018 72.2772 19.645 73.134C19.0331 74.1132 18.5435 75.3372 18.5435 76.4388Z" fill="white"/>
<path d="M20.869 99.3263C21.6034 99.9383 22.3378 100.428 23.317 100.55C23.4394 100.55 23.5618 100.55 23.6842 100.55H23.8066H23.929C23.929 100.55 23.929 100.55 24.0514 100.55C25.2754 100.55 26.377 100.061 27.2337 99.2039C28.5801 97.8575 28.9473 95.8991 28.2129 94.1855C28.2129 94.1855 28.2129 94.0631 28.0905 94.0631C27.8457 93.5735 27.6009 93.2063 27.2337 92.8391L24.541 90.3911L21.481 87.3312C21.3586 87.2088 21.3586 87.2088 21.2362 87.2088C20.3794 86.4744 19.4002 86.1072 18.2986 86.1072C17.0746 86.1072 15.973 86.5968 15.1162 87.4536C13.4027 89.1672 13.4027 92.1047 15.1162 93.8183L20.869 99.3263C20.7466 99.3263 20.869 99.3263 20.869 99.3263Z" fill="white"/>
<path d="M73.868 73.2555C73.5008 73.6227 72.8888 73.8675 72.3992 73.8675C71.9096 73.8675 71.2976 73.6227 70.9304 73.2555C70.5632 72.8883 70.3184 72.2763 70.3184 71.7867C70.3184 71.2971 70.5632 70.6851 70.9304 70.3179C72.644 68.6043 72.644 65.6667 70.9304 63.9532C70.0736 63.0964 68.8496 62.6068 67.748 62.6068C66.6464 62.6068 65.4224 63.0964 64.5656 63.9532C64.1984 64.3204 63.5864 64.5652 63.0968 64.5652C62.6072 64.5652 61.9952 64.3204 61.628 63.9532C61.2609 63.586 61.0161 62.974 61.0161 62.4844C61.0161 61.9948 61.2609 61.3828 61.628 61.0156C62.4848 60.1588 62.9744 59.0572 62.9744 57.8332C62.9744 56.6092 62.4848 55.5076 61.628 54.6508C60.7713 53.794 59.5473 53.3044 58.4457 53.3044C57.3441 53.3044 56.1201 53.794 55.2633 54.6508L53.0601 56.854L55.3857 59.1796C58.8129 62.6068 58.8129 68.1147 55.3857 71.5419C53.9169 73.0107 52.0809 73.8675 50.1225 74.1123C50.3673 74.9691 50.4897 75.8259 50.4897 76.6827C50.4897 79.0082 49.6329 81.2114 47.9194 82.8026C46.3282 84.3938 44.125 85.373 41.7994 85.373C40.9426 85.373 40.0858 85.2506 39.229 85.0058C38.9842 86.9642 38.2498 88.8002 36.781 90.2689C35.4347 91.6153 33.8435 92.3497 32.0075 92.7169C33.4763 95.8993 32.8643 99.8161 30.1715 102.386C28.5803 103.978 26.3771 104.957 24.0516 104.957C23.9292 104.957 23.8068 104.957 23.8068 104.957L20.3796 108.384C19.6452 109.118 19.4004 109.975 19.4004 111.077C19.4004 112.178 20.0124 113.28 20.8692 114.137L30.2939 123.561C31.1507 124.418 32.2523 124.908 33.4763 124.908C34.7003 124.908 35.6795 124.418 36.6586 123.561L42.0442 118.176L44.125 117.686C46.2058 118.298 48.2866 118.543 50.3673 118.543C54.8961 118.543 59.4249 117.197 63.3416 114.871C63.464 114.749 63.5864 114.749 63.7088 114.626C63.8312 114.504 63.9536 114.504 64.076 114.382C65.3 113.525 66.524 112.546 67.6256 111.444L75.4591 103.61L75.5815 103.488L79.6207 99.4489L85.2511 93.8185C86.9646 92.1049 86.9646 89.1674 85.2511 87.4538C84.3943 86.597 83.2927 86.1074 82.0687 86.1074C81.3343 86.1074 80.4775 86.3522 79.7431 86.7194C79.1311 86.8418 78.7639 86.9642 78.3967 86.9642C77.7847 86.9642 77.1727 86.7194 76.6831 86.1074L76.5607 85.985C75.9487 85.1282 75.9487 83.9042 76.6831 83.1698L80.2327 79.6202C81.0895 78.7634 81.4567 77.6618 81.4567 76.4379C81.4567 75.2139 80.9671 74.1123 80.1103 73.2555C79.2535 72.3987 78.1519 71.9091 76.9279 71.9091C75.8263 72.0315 74.7247 72.5211 73.868 73.2555Z" fill="white"/>
<path d="M78.0293 106.549C78.0293 106.549 78.0293 106.426 78.0293 106.549L70.1957 114.382C68.3597 116.218 66.279 117.809 63.9534 119.033C62.9742 119.645 61.8726 120.135 60.771 120.625L63.7086 123.562C64.5654 124.419 65.667 124.909 66.8909 124.909C67.9925 124.909 69.0941 124.419 70.0733 123.562L79.498 114.138C81.2116 112.424 81.5788 109.976 80.3548 108.752C79.498 107.895 78.6413 107.161 78.0293 106.549Z" fill="white"/>
<path d="M111 26.7141H117.664L122.9 47.8969L128.375 26.7141H135.039L140.513 47.8969L145.987 26.7141H152.652L144.559 57.6552H137.419L131.945 36.2345L126.233 57.6552H119.092L111 26.7141Z" fill="white"/>
<path d="M155.746 26.7141H162.172V57.6552H155.746V26.7141Z" fill="white"/>
<path d="M167.646 57.4177V26.4766H176.214L187.639 48.6114V26.4766H194.065V57.4177H185.021L173.834 35.9969V57.4177H167.646Z" fill="white"/>
<path d="M199.777 57.4177V26.4766H208.346L219.77 48.6114V26.4766H226.196V57.4177H217.152L205.966 35.9969V57.4177H199.777Z" fill="white"/>
<path d="M231.908 26.7141H238.334V57.6552H231.908V26.7141Z" fill="white"/>
<path d="M243.571 57.4177V26.4766H252.139L263.564 48.6114V26.4766H269.99V57.4177H260.945L249.759 35.9969V57.4177H243.571Z" fill="white"/>
<path d="M274.512 41.9466C274.512 33.3783 280.224 26 289.506 26C296.647 26 300.217 29.0941 302.597 33.1403L297.123 36.4724C295.932 34.3303 293.314 31.7122 289.506 31.7122C284.27 31.7122 281.414 36.4724 281.414 41.7086C281.414 46.9448 283.794 51.9429 290.22 51.9429C293.314 51.9429 295.694 50.7529 296.885 49.5629V45.2787H290.22V40.5185H302.597V52.419C299.979 55.7511 295.456 57.6552 290.22 57.6552C280.224 57.8932 274.512 50.5149 274.512 41.9466Z" fill="white"/>
<path d="M113.38 68.7798H125.28C133.373 68.7798 136.705 73.302 136.705 78.7762C136.705 84.2504 133.135 89.0105 125.28 89.0105H119.568V98.0549H113.38V68.7798ZM119.568 74.254V83.2983H125.042C129.088 83.2983 130.278 81.1562 130.278 78.5382C130.278 76.1581 129.088 74.016 125.042 74.016H119.568V74.254Z" fill="white"/>
<path d="M136.942 98.0553L147.177 68.7803H154.793L165.265 98.0553H159.077L156.935 92.3431H144.797L142.893 98.0553H136.942ZM146.701 87.107H155.269L150.985 74.7305L146.701 87.107Z" fill="white"/>
<path d="M168.122 68.7803H180.498C188.591 68.7803 191.923 73.3025 191.923 78.7767C191.923 83.0608 189.781 86.3929 184.782 87.583L191.923 98.0553H185.258L178.832 88.059H174.072V98.0553H167.884V68.7803H168.122ZM174.072 83.0608H180.022C184.068 83.0608 185.258 81.1568 185.258 78.7767C185.258 76.3966 184.068 74.2545 180.022 74.2545H174.072V83.0608Z" fill="white"/>
<path d="M193.351 74.0165V68.7803H220.484V74.0165H210.011V98.0553H203.823V74.0165H193.351Z" fill="white"/>
<path d="M223.816 98.0553V68.7803H232.146L243.095 89.9631V68.7803H249.283V98.0553H240.715L230.004 77.5866V98.0553H223.816Z" fill="white"/>
<path d="M275.702 68.7803V74.0165H260.707V81.1568H273.084V86.3929H260.707V92.8192H275.702V98.0553H254.519V68.7803H275.702Z" fill="white"/>
<path d="M279.748 68.7803H292.124C300.217 68.7803 303.549 73.3025 303.549 78.7767C303.549 83.0608 301.407 86.3929 296.409 87.583L303.549 98.0553H296.885L290.458 88.059H285.698V98.0553H279.748V68.7803ZM285.936 83.0608H291.886C295.933 83.0608 297.123 81.1568 297.123 78.7767C297.123 76.3966 295.933 74.2545 291.886 74.2545H285.936V83.0608Z" fill="white"/>
</svg>
